<?xml version="1.0" encoding="utf-8"?>
<!-- Generator: Adobe Illustrator 21.0.2, SVG Export Plug-In . SVG Version: 6.00 Build 0)  -->
<svg version="1.1" id="Layer_1" xmlns="http://www.w3.org/2000/svg" xmlns:xlink="http://www.w3.org/1999/xlink" x="0px" y="0px"
	 viewBox="0 0 600 600" style="enable-background:new 0 0 600 600;" xml:space="preserve">
<style type="text/css">
	.st0{fill:#010002;}
</style>
<g>
	<path d="M441.9,145.7h-19l-7-23.1c-6.6-21.9-26.4-36.5-49.3-36.5H242.9c-22.8,0-42.6,14.7-49.3,36.5l-7,23.1h-28.6
		c-62.4,0-113.2,50.8-113.2,113.2v141.9c0,62.4,50.8,113.2,113.2,113.2h283.9c62.4,0,113.2-50.8,113.2-113.2V258.9
		C555.1,196.4,504.4,145.7,441.9,145.7z M513.9,400.8c0,39.7-32.3,71.9-71.9,71.9H158.1c-39.7,0-71.9-32.3-71.9-71.9V258.9
		c0-39.7,32.3-71.9,71.9-71.9h59.2l15.9-52.4c1.3-4.3,5.3-7.3,9.8-7.3h123.8c4.5,0,8.5,2.9,9.8,7.3l15.9,52.4h49.5
		c39.7,0,71.9,32.3,71.9,71.9L513.9,400.8L513.9,400.8z"/>
	<path d="M300.9,219.6c-60.8,0-110.3,49.5-110.3,110.3c0,60.8,49.5,110.3,110.3,110.3s110.3-49.5,110.3-110.3
		C411.2,269,361.7,219.6,300.9,219.6z M300.9,398.9c-38.1,0-69-31-69-69c0-38.1,31-69,69-69c38.1,0,69,31,69,69
		C369.9,367.9,338.9,398.9,300.9,398.9z"/>
</g>
</svg>
