<?xml version="1.0" encoding="utf-8"?>
<!-- Generator: Adobe Illustrator 21.0.2, SVG Export Plug-In . SVG Version: 6.00 Build 0)  -->
<svg version="1.1" id="Layer_1" xmlns="http://www.w3.org/2000/svg" xmlns:xlink="http://www.w3.org/1999/xlink" x="0px" y="0px"
	 viewBox="0 0 600 600" style="enable-background:new 0 0 600 600;" xml:space="preserve">
<style type="text/css">
	.st0{fill:#010002;}
</style>
<g id="XMLID_228_">
	<path id="XMLID_229_" d="M128.2,243.9c-35.8,62.2-13.1,156.6,26.6,213.8c19.8,28.6,39.8,54.3,67.3,54.3c0.5,0,1,0,1.6,0
		c12.9-0.5,22.2-4.5,31.2-8.3c10.1-4.3,20.6-8.8,37-8.8c15.6,0,25.6,4.3,35.2,8.5c9.5,4.1,19.3,8.4,33.7,8.1
		c30.9-0.6,49.9-28.3,66.6-52.7c17.5-25.5,26.2-50.3,29.2-59.8l0.1-0.4c0.6-1.7-0.2-3.5-1.8-4.3c0,0-0.2-0.1-0.3-0.1
		c-5.4-2.2-53.2-23.4-53.7-81.1c-0.5-46.9,35.8-71.7,43.1-76.2l0.3-0.2c0.8-0.5,1.3-1.3,1.5-2.2c0.2-0.9,0-1.9-0.5-2.6
		c-25-36.6-63.4-42.2-78.9-42.8c-2.2-0.2-4.6-0.3-6.9-0.3c-18.1,0-35.5,6.9-49.5,12.4c-9.6,3.8-18,7.1-23.7,7.1
		c-6.5,0-14.8-3.3-24.5-7.2c-13-5.1-27.7-11-43.2-11c-0.4,0-0.7,0-1.1,0C181.2,190.4,147,211.1,128.2,243.9z"/>
	<path id="XMLID_230_" d="M366.4,88c-21.9,0.9-48.2,14.4-63.9,32.8c-13.4,15.5-26.4,41.3-23,67.3c0.2,1.6,1.5,2.9,3.2,3
		c1.5,0.1,3,0.2,4.5,0.2c21.4,0,44.5-11.9,60.3-30.9c16.6-20.2,25-46,22.5-69.2C369.8,89.3,368.2,87.9,366.4,88z"/>
</g>
</svg>
