<?xml version="1.0" encoding="utf-8"?>
<!-- Generator: Adobe Illustrator 21.0.2, SVG Export Plug-In . SVG Version: 6.00 Build 0)  -->
<svg version="1.1" id="Layer_1" xmlns="http://www.w3.org/2000/svg" xmlns:xlink="http://www.w3.org/1999/xlink" x="0px" y="0px"
	 viewBox="0 0 600 600" style="enable-background:new 0 0 600 600;" xml:space="preserve">
<style type="text/css">
	.st0{fill:#010002;}
</style>
<g id="twitter_2_">
	<path d="M541.5,156.6c1.9-2.3,2-5.5,0.4-7.9c-1.6-2.4-4.7-3.5-7.5-2.6c-12.9,4.2-26.3,7.2-40.2,8.9c16.5-10,30.1-24.4,39.2-41.5
		c1.3-2.5,0.9-5.6-1.1-7.6c-2-2-5-2.6-7.6-1.3c-16.1,7.8-33.3,13.7-51.3,17.3C454.2,101,426.6,88,396.1,88
		C337.5,88,290,135.9,290,195c0,8.4,0.9,16.5,2.8,24.4c-80.2-4.1-152.2-39.7-203.9-94.8c-3.6-3.8-8.9-5.4-14-4.2
		c-5.1,1.2-9.2,5-10.7,10c-2.9,9.8-4.5,20.2-4.5,31c0,37.2,16.4,69.9,44.9,89.1c-7.7-0.2-18.4-2.6-28-5.2c-5.3-1.4-11,0.1-15,4
		c-3.9,3.9-5.5,9.6-4.1,14.9c10.3,39.9,43.9,71.1,84.1,79.2c-8.9,2.5-17.1,3.8-26.8,3.8c0,0,0,0,0,0c-4.3,0-8.4,2.3-10.5,6.1
		c-2.2,3.7-2.2,8.4-0.1,12.1c18,31.8,51.9,53.5,90.6,54.2c-36.3,28.7-81.9,45.8-131.6,45.8c0,0-0.1,0-0.1,0c-2.8,0-5.3,1.9-6,4.7
		c-0.7,2.7,0.6,5.6,3.1,6.9c41.9,22.3,89.7,35,140.4,35c195.2,0,301.9-163.1,301.9-304.5c0-4.7-0.1-9.2-0.3-13.8
		C516.8,183,530,170.5,541.5,156.6z"/>
</g>
</svg>
