<?xml version="1.0" encoding="utf-8"?>
<!-- Generator: Adobe Illustrator 21.0.2, SVG Export Plug-In . SVG Version: 6.00 Build 0)  -->
<svg version="1.1" id="Layer_1" xmlns="http://www.w3.org/2000/svg" xmlns:xlink="http://www.w3.org/1999/xlink" x="0px" y="0px"
	 viewBox="0 0 600 600" style="enable-background:new 0 0 600 600;" xml:space="preserve">
<style type="text/css">
	.st0{fill:#010002;}
</style>
<g>
	<g>
		<path d="M473.6,302.7c-4.4-19.1-20-33.2-38.9-35.3c-44.6-5-89.7-5-134.6-5c-44.9,0-90.1,0-134.7,5c-18.8,2.1-34.5,16.2-38.9,35.3
			c-6.3,27.2-6.3,57-6.3,85c0,28,0,57.8,6.3,85c4.4,19.1,20,33.2,38.9,35.3c44.6,5,89.7,5,134.7,5c44.9,0,90.1,0,134.7-5
			c18.8-2.1,34.5-16.2,38.9-35.3c6.3-27.2,6.3-57,6.3-85C479.8,359.6,479.8,329.9,473.6,302.7z M222.8,323.8h-26v138.3h-24.2V323.8
			H147v-22.7h75.8V323.8z M288.4,462.1h-21.7V449c-8.6,9.9-16.8,14.7-24.8,14.7c-7,0-11.8-2.8-14-8.9c-1.2-3.6-1.9-9.4-1.9-17.8
			v-94.8h21.7v88.3c0,5.1,0,7.7,0.2,8.5c0.5,3.4,2.2,5.1,5.1,5.1c4.4,0,8.9-3.4,13.7-10.2v-91.7h21.7L288.4,462.1L288.4,462.1z
			 M371,426.1c0,11.1-0.7,19.1-2.2,24.2c-2.9,8.9-8.7,13.5-17.4,13.5c-7.7,0-15.2-4.3-22.5-13.3v11.6h-21.7v-161H329v52.6
			c7-8.6,14.5-13,22.5-13c8.6,0,14.5,4.6,17.4,13.5c1.5,4.8,2.2,12.8,2.2,24.1V426.1z M453,406.1h-43.5v21.3
			c0,11.1,3.6,16.6,11.1,16.6c5.4,0,8.5-2.9,9.7-8.7c0.2-1.2,0.5-6,0.5-14.7H453v3.2c0,7-0.3,11.8-0.5,14c-0.7,4.8-2.4,9.2-5.1,13
			c-6,8.7-14.9,13-26.3,13c-11.4,0-20-4.1-26.3-12.3c-4.6-6-7-15.5-7-28.2v-42c0-12.8,2.1-22.2,6.7-28.3c6.3-8.2,14.9-12.3,26-12.3
			c10.9,0,19.5,4.1,25.6,12.3c4.6,6.1,6.7,15.4,6.7,28.3L453,406.1L453,406.1z"/>
		<path d="M420.5,360.3c-7.3,0-10.9,5.5-10.9,16.6V388h21.7v-11.1C431.3,365.8,427.6,360.3,420.5,360.3z"/>
		<path d="M339.8,360.3c-3.6,0-7.2,1.7-10.8,5.3v73.1c3.6,3.6,7.3,5.4,10.8,5.4c6.3,0,9.5-5.4,9.5-16.2v-51.2
			C349.3,365.8,346.1,360.3,339.8,360.3z"/>
		<path d="M351.9,251.3c8,0,16.3-4.9,25.1-14.9v13.2h22V128.4h-22v92.6c-4.9,6.9-9.5,10.3-13.9,10.3c-2.9,0-4.7-1.7-5.1-5.1
			c-0.3-0.7-0.3-3.4-0.3-8.5v-89.2h-21.9v95.8c0,8.6,0.7,14.4,1.9,18C340,248.4,344.9,251.3,351.9,251.3z"/>
		<path d="M199,183.8v65.9h24.4v-65.9L252.7,87h-24.6l-16.6,63.9L194.2,87h-25.6c5.1,15.1,10.5,30.2,15.6,45.3
			C192,155,196.8,172.1,199,183.8z"/>
		<path d="M285.3,251.3c11,0,19.6-4.1,25.6-12.4c4.6-6.1,6.8-15.6,6.8-28.5V168c0-13-2.2-22.4-6.8-28.5
			c-6.1-8.3-14.6-12.4-25.6-12.4c-10.9,0-19.5,4.1-25.6,12.4c-4.7,6.1-6.9,15.6-6.9,28.5v42.4c0,12.9,2.2,22.4,6.9,28.5
			C265.8,247.2,274.4,251.3,285.3,251.3z M274.9,163.5c0-11.2,3.4-16.8,10.5-16.8c7.1,0,10.5,5.6,10.5,16.8v51
			c0,11.2-3.4,16.8-10.5,16.8c-7.1,0-10.5-5.6-10.5-16.8V163.5z"/>
	</g>
</g>
</svg>
