<?xml version="1.0" encoding="utf-8"?>
<!-- Generator: Adobe Illustrator 21.0.2, SVG Export Plug-In . SVG Version: 6.00 Build 0)  -->
<svg version="1.1" id="Layer_1" xmlns="http://www.w3.org/2000/svg" xmlns:xlink="http://www.w3.org/1999/xlink" x="0px" y="0px"
	 viewBox="0 0 600 600" style="enable-background:new 0 0 600 600;" xml:space="preserve">
<style type="text/css">
	.st0{fill:#010002;}
</style>
<g>
	<g id="_x33_56._Play">
		<g>
			<path d="M486.1,192.6c-59.3-102.8-190.8-138-293.5-78.6c-102.8,59.3-138,190.8-78.6,293.5c59.3,102.8,190.8,138,293.5,78.7
				C510.2,426.7,545.4,295.3,486.1,192.6z M386,448.9c-82.2,47.5-187.4,19.3-234.8-62.9c-47.5-82.2-19.3-187.4,62.9-234.8
				c82.2-47.5,187.4-19.3,234.8,62.9C496.3,296.3,468.2,401.4,386,448.9z M377.4,291.3l-112.5-65.6c-10.3-6-18.5-1.2-18.5,10.7
				l0.6,130.3c0.1,11.9,8.4,16.7,18.7,10.7l111.7-64.5C387.6,306.9,387.6,297.3,377.4,291.3z"/>
		</g>
	</g>
</g>
</svg>
