<?xml version="1.0" encoding="utf-8"?>
<!-- Generator: Adobe Illustrator 21.0.2, SVG Export Plug-In . SVG Version: 6.00 Build 0)  -->
<svg version="1.1" id="Layer_1" xmlns="http://www.w3.org/2000/svg" xmlns:xlink="http://www.w3.org/1999/xlink" x="0px" y="0px"
	 viewBox="0 0 600 600" style="enable-background:new 0 0 600 600;" xml:space="preserve">
<style type="text/css">
	.st0{fill:#010002;}
</style>
<g>
	<g>
		<g>
			<path d="M370.7,252.3H185.6v85.8h93.1c-12.5,35.6-42.9,57.2-81.6,57.2c-51.8,0-97.3-44.6-97.3-95.4c0-50.8,45.5-95.3,97.3-95.3
				c24.8,0,45.7,7.9,60.6,22.9l6.7,6.8l63.8-63.8l-6.9-6.7c-30.2-29.4-73.2-44.9-124.2-44.9C94.4,118.9,14,198.4,14,300
				c0,101.6,80.4,181.2,183.1,181.2c94.6,0,161.9-55.5,175.5-144.9c1.8-11.6,2.7-23.8,2.7-36.3c0-13.7-1.2-28.6-3.1-39.7
				L370.7,252.3z"/>
			<polygon points="528.8,252.3 528.8,195.1 462.1,195.1 462.1,252.3 404.9,252.3 404.9,319.1 462.1,319.1 462.1,376.3 528.8,376.3 
				528.8,319.1 586,319.1 586,252.3 			"/>
		</g>
	</g>
</g>
</svg>
